<svg xmlns="http://www.w3.org/2000/svg" width="30" viewBox="0 0 30 30" height="30" version="1.0"><defs><clipPath id="a"><path d="M 1.355469 0.433594 L 29.515625 0.433594 L 29.515625 28.742188 L 1.355469 28.742188 Z M 1.355469 0.433594"/></clipPath></defs><g clip-path="url(#a)"><path d="M 15.507812 0.433594 C 7.703125 0.433594 1.355469 6.785156 1.355469 14.589844 C 1.355469 22.394531 7.703125 28.742188 15.507812 28.742188 C 23.3125 28.742188 29.660156 22.394531 29.660156 14.589844 C 29.660156 6.785156 23.3125 0.433594 15.507812 0.433594 Z M 20.511719 8.441406 C 20.117188 8.320312 19.632812 8.230469 19.027344 8.230469 C 17.507812 8.230469 16.871094 9.414062 16.871094 10.867188 L 16.871094 11.628906 L 19.84375 11.628906 L 19.84375 15.023438 L 16.902344 15.023438 L 16.902344 24.585938 L 12.261719 24.585938 L 12.261719 15.023438 L 10.320312 15.023438 L 10.320312 11.628906 L 12.261719 11.628906 L 12.261719 11.050781 C 12.261719 9.261719 12.808594 7.289062 14.144531 6.078125 C 15.296875 4.984375 16.902344 4.589844 18.238281 4.589844 C 19.269531 4.589844 20.058594 4.710938 20.695312 4.894531 Z M 20.511719 8.441406"/></g></svg>