<svg xmlns="http://www.w3.org/2000/svg" width="30" viewBox="0 0 30 30" height="30" version="1.0"><defs><clipPath id="a"><path d="M 0.484375 0 L 29.515625 0 L 29.515625 29.03125 L 0.484375 29.03125 Z M 0.484375 0"/></clipPath></defs><path fill="#1B1C1F" d="M 12.527344 11.203125 C 9.816406 12.769531 13.953125 20.527344 16.921875 18.816406 L 19.675781 23.582031 C 18.421875 24.304688 17.363281 24.761719 15.910156 23.929688 C 11.878906 21.625 7.441406 13.945312 7.566406 9.363281 C 7.613281 7.769531 8.550781 7.144531 9.777344 6.4375 Z M 12.527344 11.203125" fill-rule="evenodd"/><path fill="#1B1C1F" d="M 13.664062 11.074219 C 13.371094 11.246094 12.996094 11.144531 12.828125 10.851562 L 10.230469 6.355469 C 10.0625 6.0625 10.164062 5.6875 10.457031 5.515625 L 11.820312 4.730469 C 12.113281 4.5625 12.492188 4.660156 12.660156 4.957031 L 15.253906 9.449219 C 15.421875 9.742188 15.320312 10.117188 15.027344 10.289062 Z M 13.664062 11.074219" fill-rule="evenodd"/><path fill="#1B1C1F" d="M 20.753906 23.351562 C 20.460938 23.519531 20.082031 23.417969 19.914062 23.125 L 17.320312 18.632812 C 17.148438 18.339844 17.25 17.960938 17.542969 17.792969 L 18.90625 17.003906 C 19.199219 16.835938 19.578125 16.9375 19.746094 17.230469 L 22.339844 21.722656 C 22.511719 22.015625 22.410156 22.394531 22.117188 22.5625 Z M 20.753906 23.351562" fill-rule="evenodd"/><g clip-path="url(#a)"><path fill="#1B1C1F" d="M 14.996094 0 L 14.996094 0.00390625 C 19.003906 0.00390625 22.632812 1.625 25.257812 4.25 C 27.878906 6.875 29.503906 10.503906 29.503906 14.511719 L 29.507812 14.511719 L 29.503906 14.511719 C 29.503906 18.519531 27.878906 22.148438 25.257812 24.773438 C 22.632812 27.394531 19.003906 29.019531 14.996094 29.019531 L 14.996094 29.023438 L 14.996094 29.019531 C 10.984375 29.019531 7.359375 27.394531 4.734375 24.773438 C 2.109375 22.148438 0.488281 18.519531 0.488281 14.511719 L 0.484375 14.511719 L 0.488281 14.511719 C 0.488281 10.503906 2.109375 6.875 4.734375 4.25 C 7.359375 1.625 10.984375 0.00390625 14.996094 0.00390625 Z M 14.996094 1.730469 L 14.996094 1.734375 L 14.996094 1.730469 C 11.46875 1.730469 8.273438 3.164062 5.960938 5.476562 C 3.648438 7.792969 2.214844 10.984375 2.214844 14.511719 L 2.21875 14.511719 L 2.214844 14.511719 C 2.214844 18.039062 3.648438 21.230469 5.960938 23.546875 C 8.273438 25.859375 11.46875 27.292969 14.996094 27.292969 L 14.996094 27.289062 L 14.996094 27.292969 C 18.519531 27.292969 21.714844 25.859375 24.03125 23.546875 C 26.34375 21.230469 27.777344 18.035156 27.777344 14.511719 L 27.773438 14.511719 L 27.777344 14.511719 C 27.777344 10.984375 26.34375 7.792969 24.03125 5.476562 C 21.714844 3.164062 18.519531 1.730469 14.996094 1.730469 Z M 14.996094 1.730469"/></g></svg>